# Blender 5.2.0 LTS
# www.blender.org
mtllib card.mtl
o Plane
v 0.000000 0.484756 1.000000
v 0.000000 0.609756 0.875000
v 0.000000 0.517109 0.995741
v 0.000000 0.547256 0.983253
v 0.000000 0.573144 0.963388
v 0.000000 0.593009 0.937500
v 0.000000 0.605497 0.907352
v -0.000000 -0.609756 0.875000
v -0.000000 -0.484756 1.000000
v -0.000000 -0.605497 0.907352
v -0.000000 -0.593009 0.937500
v -0.000000 -0.573144 0.963388
v -0.000000 -0.547256 0.983253
v -0.000000 -0.517109 0.995741
v 0.000000 0.484756 -1.000000
v 0.000000 0.609756 -0.875000
v 0.000000 0.517109 -0.995741
v 0.000000 0.547256 -0.983253
v 0.000000 0.573144 -0.963388
v 0.000000 0.593009 -0.937500
v 0.000000 0.605497 -0.907352
v -0.000000 -0.484756 -1.000000
v -0.000000 -0.609756 -0.875000
v -0.000000 -0.517109 -0.995741
v -0.000000 -0.547256 -0.983253
v -0.000000 -0.573144 -0.963388
v -0.000000 -0.593009 -0.937500
v -0.000000 -0.605497 -0.907352
v 0.040000 0.484756 1.000000
v 0.040000 0.609756 0.875000
v 0.040000 0.517109 0.995741
v 0.040000 0.547256 0.983253
v 0.040000 0.573144 0.963388
v 0.040000 0.593009 0.937500
v 0.040000 0.605497 0.907352
v 0.040000 -0.609756 0.875000
v 0.040000 -0.484756 1.000000
v 0.040000 -0.605497 0.907352
v 0.040000 -0.593009 0.937500
v 0.040000 -0.573144 0.963388
v 0.040000 -0.547256 0.983253
v 0.040000 -0.517109 0.995741
v 0.040000 0.484756 -1.000000
v 0.040000 0.609756 -0.875000
v 0.040000 0.517109 -0.995741
v 0.040000 0.547256 -0.983253
v 0.040000 0.573144 -0.963388
v 0.040000 0.593009 -0.937500
v 0.040000 0.605497 -0.907352
v 0.040000 -0.484756 -1.000000
v 0.040000 -0.609756 -0.875000
v 0.040000 -0.517109 -0.995741
v 0.040000 -0.547256 -0.983253
v 0.040000 -0.573144 -0.963388
v 0.040000 -0.593009 -0.937500
v 0.040000 -0.605497 -0.907352
vn -1.0000 -0.0000 -0.0000
vn 1.0000 -0.0000 -0.0000
vn -0.0000 -0.9914 -0.1305
vn -0.0000 0.9239 0.3827
vn -0.0000 -0.9239 -0.3827
vn -0.0000 0.7934 0.6088
vn -0.0000 -0.7934 -0.6088
vn -0.0000 0.6088 0.7934
vn -0.0000 -0.6088 -0.7934
vn -0.0000 0.3827 0.9239
vn -0.0000 -0.3827 -0.9239
vn -0.0000 0.1305 0.9914
vn -0.0000 -0.1305 -0.9914
vn -0.0000 -0.0000 1.0000
vn -0.0000 -0.0000 -1.0000
vn -0.0000 -0.1305 0.9914
vn -0.0000 0.1305 -0.9914
vn -0.0000 -0.3827 0.9239
vn -0.0000 0.3827 -0.9239
vn -0.0000 -0.6088 0.7934
vn -0.0000 0.6088 -0.7934
vn -0.0000 -0.7934 0.6088
vn -0.0000 0.7934 -0.6088
vn -0.0000 -0.9239 0.3827
vn -0.0000 0.9239 -0.3827
vn -0.0000 -0.9914 0.1305
vn -0.0000 1.0000 -0.0000
vn -0.0000 0.9914 -0.1305
vn -0.0000 -1.0000 -0.0000
vn -0.0000 0.9914 0.1305
vt 0.075971 0.002130
vt 0.030022 0.018306
vt 0.003493 0.046324
vt 0.102500 1.000000
vt 0.051250 0.991627
vt 0.000000 0.937500
vt 0.996507 0.953676
vt 1.000000 0.937500
vt 0.013732 0.031250
vt 0.986268 0.968750
vt 0.969978 0.981694
vt 0.051250 0.008373
vt 0.948750 0.991627
vt 0.924029 0.997870
vt 0.102500 0.000000
vt 0.897500 1.000000
vt 0.897500 0.000000
vt 0.924029 0.002130
vt 0.075971 0.997870
vt 0.948750 0.008373
vt 0.969978 0.018306
vt 0.030022 0.981694
vt 0.986268 0.031250
vt 0.013732 0.968750
vt 0.996507 0.046324
vt 0.003493 0.953676
vt 1.000000 0.062500
vt 0.000000 0.062500
s 0
f 3/1/1 5/2/1 7/3/1
f 43/4/2 46/5/2 44/6/2
f 28/7/3 51/8/3 23/8/3
f 6/9/4 35/3/4 7/3/4
f 27/10/5 56/7/5 28/7/5
f 5/2/6 34/9/6 6/9/6
f 26/11/7 55/10/7 27/10/7
f 4/12/8 33/2/8 5/2/8
f 25/13/9 54/11/9 26/11/9
f 3/1/10 32/12/10 4/12/10
f 24/14/11 53/13/11 25/13/11
f 1/15/12 31/1/12 3/1/12
f 22/16/13 52/14/13 24/14/13
f 9/17/14 29/15/14 1/15/14
f 15/4/15 50/16/15 22/16/15
f 14/18/16 37/17/16 9/17/16
f 17/19/17 43/4/17 15/4/17
f 13/20/18 42/18/18 14/18/18
f 18/5/19 45/19/19 17/19/19
f 12/21/20 41/20/20 13/20/20
f 19/22/21 46/5/21 18/5/21
f 11/23/22 40/21/22 12/21/22
f 20/24/23 47/22/23 19/22/23
f 10/25/24 39/23/24 11/23/24
f 21/26/25 48/24/25 20/24/25
f 8/27/26 38/25/26 10/25/26
f 2/28/27 44/6/27 16/6/27
f 16/6/28 49/26/28 21/26/28
f 23/8/29 36/27/29 8/27/29
f 7/3/30 30/28/30 2/28/30
f 7/3/1 2/28/1 3/1/1
f 2/28/1 16/6/1 8/27/1
f 16/6/1 21/26/1 20/24/1
f 20/24/1 19/22/1 15/4/1
f 19/22/1 18/5/1 15/4/1
f 18/5/1 17/19/1 15/4/1
f 15/4/1 22/16/1 23/8/1
f 22/16/1 24/14/1 28/7/1
f 24/14/1 25/13/1 26/11/1
f 26/11/1 27/10/1 28/7/1
f 28/7/1 23/8/1 22/16/1
f 23/8/1 8/27/1 16/6/1
f 8/27/1 10/25/1 11/23/1
f 11/23/1 12/21/1 8/27/1
f 12/21/1 13/20/1 8/27/1
f 13/20/1 14/18/1 9/17/1
f 9/17/1 1/15/1 2/28/1
f 1/15/1 3/1/1 2/28/1
f 3/1/1 4/12/1 5/2/1
f 5/2/1 6/9/1 7/3/1
f 2/28/1 8/27/1 9/17/1
f 16/6/1 20/24/1 15/4/1
f 24/14/1 26/11/1 28/7/1
f 23/8/1 16/6/1 15/4/1
f 13/20/1 9/17/1 8/27/1
f 44/6/2 30/28/2 36/27/2
f 30/28/2 35/3/2 29/15/2
f 36/27/2 30/28/2 37/17/2
f 35/3/2 34/9/2 33/2/2
f 33/2/2 32/12/2 31/1/2
f 31/1/2 29/15/2 35/3/2
f 29/15/2 37/17/2 30/28/2
f 37/17/2 42/18/2 41/20/2
f 41/20/2 40/21/2 37/17/2
f 40/21/2 39/23/2 37/17/2
f 39/23/2 38/25/2 36/27/2
f 36/27/2 51/8/2 44/6/2
f 51/8/2 56/7/2 50/16/2
f 44/6/2 51/8/2 43/4/2
f 56/7/2 55/10/2 54/11/2
f 54/11/2 53/13/2 52/14/2
f 52/14/2 50/16/2 56/7/2
f 50/16/2 43/4/2 51/8/2
f 43/4/2 45/19/2 46/5/2
f 46/5/2 47/22/2 44/6/2
f 47/22/2 48/24/2 44/6/2
f 48/24/2 49/26/2 44/6/2
f 35/3/2 33/2/2 31/1/2
f 39/23/2 36/27/2 37/17/2
f 56/7/2 54/11/2 52/14/2
f 28/7/3 56/7/3 51/8/3
f 6/9/4 34/9/4 35/3/4
f 27/10/5 55/10/5 56/7/5
f 5/2/6 33/2/6 34/9/6
f 26/11/7 54/11/7 55/10/7
f 4/12/8 32/12/8 33/2/8
f 25/13/9 53/13/9 54/11/9
f 3/1/10 31/1/10 32/12/10
f 24/14/11 52/14/11 53/13/11
f 1/15/12 29/15/12 31/1/12
f 22/16/13 50/16/13 52/14/13
f 9/17/14 37/17/14 29/15/14
f 15/4/15 43/4/15 50/16/15
f 14/18/16 42/18/16 37/17/16
f 17/19/17 45/19/17 43/4/17
f 13/20/18 41/20/18 42/18/18
f 18/5/19 46/5/19 45/19/19
f 12/21/20 40/21/20 41/20/20
f 19/22/21 47/22/21 46/5/21
f 11/23/22 39/23/22 40/21/22
f 20/24/23 48/24/23 47/22/23
f 10/25/24 38/25/24 39/23/24
f 21/26/25 49/26/25 48/24/25
f 8/27/26 36/27/26 38/25/26
f 2/28/27 30/28/27 44/6/27
f 16/6/28 44/6/28 49/26/28
f 23/8/29 51/8/29 36/27/29
f 7/3/30 35/3/30 30/28/30
